HIERARCHY
ROOT Hips
{
	OFFSET 0.000000 0.000000 0.000000
	CHANNELS 6 Xposition Yposition Zposition Zrotation Yrotation Xrotation
	JOINT LHipJoint
	{
		OFFSET 0.000000 0.000000 0.000000
		CHANNELS 3 Zrotation Yrotation Xrotation
		JOINT LeftUpLeg
		{
			OFFSET 1.363060 -1.794630 0.839290
			CHANNELS 3 Zrotation Yrotation Xrotation
			JOINT LeftLeg
			{
				OFFSET 2.448110 -6.726130 0.000000
				CHANNELS 3 Zrotation Yrotation Xrotation
				JOINT LeftFoot
				{
					OFFSET 2.562200 -7.039590 0.000000
					CHANNELS 3 Zrotation Yrotation Xrotation
					JOINT LeftToeBase
					{
						OFFSET 0.157640 -0.433110 2.322550
						CHANNELS 3 Zrotation Yrotation Xrotation
						End Site
						{
							OFFSET 0.000000 0.000000 0.000000
						}
					}
				}
			}
		}
	}
	JOINT RHipJoint
	{
		OFFSET 0.000000 0.000000 0.000000
		CHANNELS 3 Zrotation Yrotation Xrotation
		JOINT RightUpLeg
		{
			OFFSET -1.305520 -1.794630 0.839290
			CHANNELS 3 Zrotation Yrotation Xrotation
			JOINT RightLeg
			{
				OFFSET -2.542530 -6.985550 0.000000
				CHANNELS 3 Zrotation Yrotation Xrotation
				JOINT RightFoot
				{
					OFFSET -2.568260 -7.056230 0.000000
					CHANNELS 3 Zrotation Yrotation Xrotation
					JOINT RightToeBase
					{
						OFFSET -0.164730 -0.452590 2.363150
						CHANNELS 3 Zrotation Yrotation Xrotation
						End Site
						{
							OFFSET 0.000000 0.000000 0.000000
						}
					}
				}
			}
		}
	}
	JOINT LowerBack
	{
		OFFSET 0.000000 0.000000 0.000000
		CHANNELS 3 Zrotation Yrotation Xrotation
		JOINT Spine
		{
			OFFSET 0.028270 2.035590 -0.193380
			CHANNELS 3 Zrotation Yrotation Xrotation
			JOINT Spine1
			{
				OFFSET 0.056720 2.048850 -0.042750
				CHANNELS 3 Zrotation Yrotation Xrotation
				JOINT Neck
				{
					OFFSET 0.000000 0.000000 0.000000
					CHANNELS 3 Zrotation Yrotation Xrotation
					JOINT Neck1
					{
						OFFSET -0.054170 1.746240 0.172020
						CHANNELS 3 Zrotation Yrotation Xrotation
						JOINT Head
						{
							OFFSET 0.104070 1.761360 -0.123970
							CHANNELS 3 Zrotation Yrotation Xrotation
							End Site
							{
								OFFSET 0.000000 0.000000 0.000000
							}
						}
					}
				}
				JOINT LeftShoulder
				{
					OFFSET 0.000000 0.000000 0.000000
					CHANNELS 3 Zrotation Yrotation Xrotation
					JOINT LeftArm
					{
						OFFSET 3.362410 1.200890 -0.311210
						CHANNELS 3 Zrotation Yrotation Xrotation
						JOINT LeftForeArm
						{
							OFFSET 4.983000 -0.000000 -0.000000
							CHANNELS 3 Zrotation Yrotation Xrotation
							JOINT LeftHand
							{
								OFFSET 3.483560 -0.000000 -0.000000
								CHANNELS 3 Zrotation Yrotation Xrotation
								JOINT LeftFingerBase
								{
									OFFSET 0.000000 0.000000 0.000000
									CHANNELS 3 Zrotation Yrotation Xrotation
									JOINT LeftHandIndex1
									{
										OFFSET 0.715260 -0.000000 -0.000000
										CHANNELS 3 Zrotation Yrotation Xrotation
										End Site
										{
											OFFSET 0.000000 0.000000 0.000000
										}
									}
								}
								JOINT LThumb
								{
									OFFSET 0.000000 0.000000 0.000000
									CHANNELS 3 Zrotation Yrotation Xrotation
									End Site
									{
										OFFSET 0.000000 0.000000 0.000000
									}
								}
							}
						}
					}
				}
				JOINT RightShoulder
				{
					OFFSET 0.000000 0.000000 0.000000
					CHANNELS 3 Zrotation Yrotation Xrotation
					JOINT RightArm
					{
						OFFSET -3.136600 1.374050 -0.404650
						CHANNELS 3 Zrotation Yrotation Xrotation
						JOINT RightForeArm
						{
							OFFSET -5.241900 -0.000000 -0.000000
							CHANNELS 3 Zrotation Yrotation Xrotation
							JOINT RightHand
							{
								OFFSET -3.444170 -0.000000 -0.000000
								CHANNELS 3 Zrotation Yrotation Xrotation
								JOINT RightFingerBase
								{
									OFFSET 0.000000 0.000000 0.000000
									CHANNELS 3 Zrotation Yrotation Xrotation
									JOINT RightHandIndex1
									{
										OFFSET -0.622530 -0.000000 -0.000000
										CHANNELS 3 Zrotation Yrotation Xrotation
										End Site
										{
											OFFSET 0.000000 0.000000 0.000000
										}
									}
								}
								JOINT RThumb
								{
									OFFSET 0.000000 0.000000 0.000000
									CHANNELS 3 Zrotation Yrotation Xrotation
									End Site
									{
										OFFSET 0.000000 0.000000 0.000000
									}
								}
							}
						}
					}
				}
			}
		}
	}
}
MOTION
Frames: 6
Frame Time: 0.008333
2.130996 1.031718 -2.247779 2.023731 5.634061 1.016429 -0.311803 1.413421 3.860420 -7.710148 6.803439 12.410089 0.295998 -8.536478 -2.116770 2.070190 -21.671535 13.086243 -0.856480 -4.676636 -1.768215 2.225096 -0.822430 -6.395303 9.145634 2.525566 -20.525600 4.864222 -3.668717 -4.268150 1.116225 1.479286 -12.394626 -1.395481 4.874029 10.281972 3.196346 -4.840142 -3.513876 1.198057 -6.485386 3.315727 3.600539 -4.405998 4.785985 6.398811 1.634704 -4.265163 5.284534 2.009359 -1.252032 0.000267 0.052761 -1.365175 -1.106824 0.124630 -0.128809 -12.669176 -4.059746 54.122742 11.529334 -17.147436 -2.893392 0.077918 0.266017 -1.823215 18.497675 -15.113349 -1.703046 -1.245565 0.000000 0.000000 -6.859451 -20.131868 -12.707224 -3.058835 -1.886176 0.419715 30.586485 -21.909294 -23.423870 -8.561021 3.147373 -2.388768 -1.145589 -0.836711 8.970182 -0.814472 -0.133310 9.014564 2.550521 0.000000 0.000000 35.667187 -22.213156 22.275637
2.112403 1.023456 -2.310172 1.991337 5.666565 1.040161 -0.322423 1.408556 3.866177 -7.688871 6.845197 12.828995 0.252969 -8.759254 -2.348024 2.110679 -21.582443 12.987158 -0.845919 -4.651025 -1.832491 2.283705 -0.858666 -6.414365 9.253425 2.455602 -20.645866 4.788045 -3.726998 -3.752527 1.119874 1.295848 -12.243919 -1.384069 4.841540 10.291715 3.275595 -4.827684 -3.523219 1.215340 -6.461158 3.293579 3.626954 -4.413067 4.858004 6.317519 1.653514 -4.256262 5.276047 2.002933 -1.208941 0.006941 0.050363 -1.327522 -1.053263 0.187114 -0.113257 -12.363148 -3.910004 54.426212 11.714711 -17.193960 -2.907896 0.088179 0.296606 -1.265827 18.561184 -15.081306 -1.664439 -1.242385 0.000000 0.000000 -6.747650 -19.821598 -12.701609 -2.936537 -1.819664 0.438194 30.968233 -21.992426 -23.577326 -8.570962 3.370401 -2.381464 -1.152632 -0.858753 9.103098 -0.629335 -0.358497 8.849163 2.574831 0.000000 0.000000 35.611282 -22.388979 22.553507
2.099756 1.027305 -2.317126 1.971035 5.716898 1.092139 -0.304099 1.413515 3.881752 -7.640356 6.910658 13.290195 0.219287 -8.953971 -2.505248 2.158077 -21.472452 12.921661 -0.830525 -4.618310 -1.874901 2.358852 -0.888542 -6.422876 9.403647 2.410212 -20.719292 4.719193 -3.773713 -3.213503 1.126461 1.128796 -12.059113 -1.362247 4.821821 10.313605 3.353640 -4.820283 -3.527111 1.231839 -6.437445 3.267828 3.648263 -4.415863 4.951364 6.250672 1.676858 -4.230333 5.270700 2.011174 -1.154761 0.008926 0.040016 -1.312830 -1.027307 0.205270 -0.110859 -12.349725 -3.863304 54.415112 11.817613 -17.352509 -2.948560 0.087217 0.308971 -0.948249 18.510475 -15.078143 -1.643773 -1.247147 0.000000 0.000000 -6.714147 -19.544817 -12.796451 -2.870500 -1.802379 0.440724 31.172163 -22.128256 -23.778656 -8.692005 3.504627 -2.392588 -1.159091 -0.878649 9.245807 -0.154170 -0.485901 8.811963 2.602573 0.000000 0.000000 35.761559 -22.458736 23.050283
2.081033 1.019647 -2.364110 1.942702 5.751812 1.128442 -0.298275 1.411732 3.889586 -7.612680 6.960544 13.713721 0.178535 -9.164256 -2.699596 2.201269 -21.380621 12.841136 -0.818369 -4.595523 -1.945814 2.420630 -0.922761 -6.439501 9.530604 2.349387 -20.814358 4.646035 -3.828043 -2.687620 1.128198 0.933913 -11.887084 -1.341728 4.795992 10.334623 3.427857 -4.818101 -3.541228 1.242262 -6.418944 3.234432 3.662638 -4.421675 5.029841 6.170515 1.689024 -4.225735 5.257500 2.006625 -1.117969 0.001741 0.024042 -1.310813 -1.015712 0.212293 -0.111344 -12.394369 -3.835840 54.358929 11.908895 -17.524939 -2.992472 0.085506 0.318912 -0.657178 18.444479 -15.098729 -1.632183 -1.253730 0.000000 0.000000 -6.722291 -19.313574 -12.934892 -2.811949 -1.790657 0.441374 31.352978 -22.271223 -23.995205 -8.835576 3.621347 -2.416332 -1.166978 -0.899709 9.374943 0.217190 -0.656157 8.691526 2.627939 0.000000 0.000000 35.760849 -22.625519 23.356129
2.074919 1.025410 -2.341088 1.972467 5.829864 1.183720 -0.271088 1.423069 3.907663 -7.562689 7.032377 14.129597 0.148998 -9.356496 -2.845604 2.250550 -21.286951 12.746778 -0.811348 -4.654535 -2.152018 2.475044 -0.957465 -6.463091 9.655412 2.287948 -20.913439 4.562841 -3.888098 -2.145917 1.126651 0.781063 -11.743065 -1.318734 4.776828 10.342248 3.514779 -4.812725 -3.537309 1.229291 -6.412395 3.212308 3.681013 -4.422449 5.104523 6.097219 1.702694 -4.230123 5.252698 2.015739 -1.055380 0.018847 0.016093 -1.308151 -1.002407 0.215465 -0.112346 -12.458474 -3.812524 54.308998 11.984854 -17.705391 -3.038483 0.086286 0.329504 -0.386082 18.362579 -15.140362 -1.626078 -1.259719 0.000000 0.000000 -6.685678 -19.064428 -13.042895 -2.767496 -1.782746 0.442543 31.547005 -22.395699 -24.199587 -8.978563 3.737531 -2.413200 -1.172880 -0.918035 9.520281 0.639495 -0.760458 8.644376 2.655221 0.000000 0.000000 35.925442 -22.719557 23.765305
2.070916 0.989304 -2.476663 1.997697 5.877760 1.220537 -0.254938 1.428455 3.923091 -7.524136 7.100919 14.466906 0.113747 -9.544318 -2.973920 2.306214 -21.144901 12.739371 -0.792159 -4.683693 -2.247766 2.562670 -0.979182 -6.474658 9.821384 2.253459 -20.967865 4.483270 -3.919651 -1.536520 1.134806 0.814231 -11.565214 -1.284778 4.799775 10.148471 3.595274 -4.804245 -3.525320 1.220863 -6.410325 3.188951 3.696065 -4.427314 5.150905 6.010764 1.703940 -4.270268 5.244273 2.011752 -1.006964 0.014314 -0.002820 -1.311619 -0.995698 0.220360 -0.111231 -12.476664 -3.770773 54.399315 12.075031 -17.849829 -3.075473 0.089509 0.340126 -0.082069 18.290794 -15.097027 -1.600988 -1.267705 0.000000 0.000000 -6.621056 -18.834154 -13.154324 -2.734640 -1.775849 0.445571 31.772257 -22.503105 -24.402950 -9.124288 3.847913 -2.385172 -1.175783 -0.935564 9.669251 0.958268 -0.862502 8.556822 2.681134 0.000000 0.000000 35.940907 -22.912981 24.007898
